<svg width="105" height="93" viewBox="0 0 105 93" fill="none" xmlns="http://www.w3.org/2000/svg">
<path d="M103.64 23.3776H77.7715V59.0158H103.64V23.3776Z" stroke="#2C3B96" stroke-width="1.2" stroke-linecap="round" stroke-linejoin="round"/>
<path d="M86.9507 59.0155H80.2749V91.3385H86.9507V59.0155Z" stroke="#2C3B96" stroke-width="1.2" stroke-linecap="round" stroke-linejoin="round"/>
<path d="M77.7712 23.3776V32.0246L60.4742 46.5838L56.9094 43.4067L77.7712 23.3776Z" stroke="#2C3B96" stroke-width="1.2" stroke-linecap="round" stroke-linejoin="round"/>
<path d="M101.971 59.0155H94.4609V91.3385H101.971V59.0155Z" stroke="#2C3B96" stroke-width="1.2" stroke-linecap="round" stroke-linejoin="round"/>
<path d="M90.7056 20.0623C96.0055 20.0623 100.302 15.795 100.302 10.5311C100.302 5.26724 96.0055 1 90.7056 1C85.4056 1 81.1091 5.26724 81.1091 10.5311C81.1091 15.795 85.4056 20.0623 90.7056 20.0623Z" stroke="#2C3B96" stroke-width="1.2" stroke-linecap="round" stroke-linejoin="round"/>
<path d="M0.99979 24.2063H26.8684V59.8445H0.99979V24.2063Z" stroke="#2C3B96" stroke-width="1.2" stroke-linecap="round" stroke-linejoin="round"/>
<path d="M17.6895 59.8445H24.3652V92.1675H17.6895V59.8445Z" stroke="#2C3B96" stroke-width="1.2" stroke-linecap="round" stroke-linejoin="round"/>
<path d="M26.8687 24.2063V32.8534L44.1656 47.4126L47.7305 44.2355L26.8687 24.2063Z" stroke="#2C3B96" stroke-width="1.2" stroke-linecap="round" stroke-linejoin="round"/>
<path d="M2.66895 59.8445H10.1792V92.1675H2.66895V59.8445Z" stroke="#2C3B96" stroke-width="1.2" stroke-linecap="round" stroke-linejoin="round"/>
<path d="M13.9341 20.891C8.63414 20.891 4.33767 16.6238 4.33767 11.3599C4.33767 6.09597 8.63414 1.82874 13.9341 1.82874C19.2341 1.82874 23.5305 6.09597 23.5305 11.3599C23.5305 16.6238 19.2341 20.891 13.9341 20.891Z" stroke="#2C3B96" stroke-width="1.2" stroke-linecap="round" stroke-linejoin="round"/>
<path d="M58.8132 52.3505C58.8132 52.3505 50.5818 57.2039 48.609 49.077C48.609 49.077 54.3539 43.7206 58.8132 52.3505Z" fill="white" stroke="#2C3B96" stroke-width="1.2" stroke-linecap="round" stroke-linejoin="round"/>
<path d="M41.2497 69.1993C41.2497 69.1993 31.925 54.9085 46.4311 50.8304C46.4311 50.8304 56.4875 60.6659 41.2497 69.1993Z" fill="white" stroke="#2C3B96" stroke-width="1.2" stroke-linecap="round" stroke-linejoin="round"/>
</svg>
