<svg width="107" height="118" viewBox="0 0 107 118" fill="none" xmlns="http://www.w3.org/2000/svg">
<path d="M1.00004 96.6259V48.4515H23.4736V1H54.5332V33.7302" stroke="#2C3B96" stroke-width="1.2" stroke-linecap="round" stroke-linejoin="round"/>
<path d="M54.5332 33.8705H93.4375V96.9688H1.32156" stroke="#2C3B96" stroke-width="1.2" stroke-linecap="round" stroke-linejoin="round"/>
<g clip-path="url(#clip0_1909_29230)">
<path d="M105.583 106.822C105.583 112.46 101.004 117.039 95.3736 117.039H38.4178C35.3029 117.039 32.8811 114.609 32.8811 111.494C32.8811 109.563 33.9168 108.122 34.7968 107.258L35.2484 106.791L34.7734 106.363C33.5897 105.303 32.8811 103.723 32.8811 102.142C32.8811 100.561 33.5274 99.1048 34.6877 98.038L35.1861 97.5863L34.6877 97.1346C33.5274 96.0756 32.8811 94.6194 32.8811 93.0308C32.8811 89.9237 35.3107 87.5018 38.4178 87.5018H99.9214C103.036 87.5018 105.458 89.9314 105.458 93.0463C105.458 95.2813 104.212 97.2047 102.203 98.1003L101.323 98.4896L102.055 99.1204C104.298 101.059 105.583 103.878 105.583 106.822Z" fill="#FBFBFA"/>
<path d="M107 106.931C107 104.011 105.708 101.239 103.457 99.3151L102.655 98.6298H102.671L102.242 98.256L103.722 97.6097C105.669 96.7609 106.876 94.9075 106.876 92.7738C106.876 89.7991 104.516 87.4707 101.51 87.4707H37.6083C34.6024 87.4707 32.2429 89.7991 32.2429 92.7738C32.2429 94.2845 32.8659 95.6784 33.9872 96.6986L34.8283 97.4539L33.9872 98.2093C32.8581 99.2216 32.2429 100.616 32.2429 102.134C32.2429 103.653 32.9282 105.163 34.0729 106.183L34.875 106.9L34.1118 107.655C33.2552 108.488 32.2351 109.875 32.2351 111.744C32.2351 114.718 34.5946 117.047 37.6005 117.047H96.7757C102.414 117.047 106.993 112.514 106.993 106.939L107 106.931ZM33.3876 92.7894C33.3876 90.4299 35.241 88.5999 37.6083 88.5999H101.51C103.878 88.5999 105.731 90.4376 105.731 92.7738C105.731 95.11 103.878 96.9478 101.51 96.9478H98.3253C97.679 96.8621 97.2196 96.8232 96.7757 96.8232H37.6083C37.5149 96.8232 37.4292 96.831 37.3357 96.8543L36.814 96.901H36.7751C34.7737 96.4805 33.3876 94.7907 33.3876 92.7894ZM33.3876 111.736C33.3876 109.392 35.241 107.562 37.6083 107.562H97.1573C97.313 107.562 97.4532 107.492 97.5778 107.344C97.6946 107.204 97.7802 107.001 97.8114 106.799V105.039C97.8114 104.712 97.4999 104.416 97.1573 104.416C96.8146 104.416 96.5187 104.712 96.5187 105.039V106.308H37.6083C35.241 106.308 33.3876 104.47 33.3876 102.134C33.3876 100.109 34.7737 98.4273 36.7595 98.038H36.923L37.4214 98.0769C37.4915 98.0847 37.546 98.0925 37.6083 98.0925H98.2397C102.663 98.8478 105.863 102.57 105.863 106.947C105.863 111.899 101.791 115.925 96.7913 115.925L37.6083 115.91C35.241 115.91 33.3876 114.072 33.3876 111.736Z" fill="#2C3B96"/>
<path d="M105.863 106.939C105.863 102.562 102.662 98.8479 98.2393 98.0925H37.6079C37.5456 98.0925 37.4989 98.0848 37.421 98.0692L36.9226 98.0225H36.7591C34.7733 98.4196 33.3872 100.102 33.3872 102.126C33.3872 104.47 35.2406 106.3 37.6079 106.3H96.5261V105.031C96.5261 104.704 96.8298 104.408 97.1646 104.408C97.4995 104.408 97.811 104.704 97.811 105.031V106.791C97.7798 106.993 97.6942 107.196 97.5774 107.336C97.4605 107.476 97.3204 107.554 97.1568 107.554H37.6079C35.2406 107.554 33.3872 109.392 33.3872 111.728C33.3872 114.064 35.2406 115.902 37.6079 115.902L96.7908 115.918C101.79 115.918 105.863 111.892 105.863 106.939ZM96.7753 115.513H37.6079C35.4586 115.513 33.7766 113.846 33.7766 111.728C33.7766 109.61 35.4586 107.943 37.6079 107.943H97.1568C97.4294 107.943 97.6786 107.819 97.8733 107.593C98.0368 107.398 98.1536 107.134 98.2003 106.83V105.039C98.2003 104.501 97.7175 104.026 97.1646 104.026C96.6117 104.026 96.1367 104.501 96.1367 105.039V105.919H37.6079C35.4586 105.919 33.7766 104.252 33.7766 102.134C33.7766 100.296 35.0303 98.77 36.8292 98.4196L37.3743 98.4585C37.4521 98.4663 37.5222 98.4819 37.6001 98.4819H98.177C102.398 99.2061 105.466 102.765 105.466 106.947C105.466 111.681 101.572 115.536 96.7831 115.536L96.7675 115.52L96.7753 115.513Z" fill="#FBFBFA"/>
<path d="M36.8136 96.901L37.3353 96.8543C37.421 96.831 37.5144 96.8232 37.6079 96.8232H96.783C97.2191 96.8232 97.6864 96.8621 98.3327 96.9478H101.518C103.885 96.9478 105.738 95.1178 105.738 92.7738C105.738 90.4299 103.885 88.5999 101.518 88.5999H37.6079C35.2406 88.5999 33.3872 90.4299 33.3872 92.7894C33.3872 94.7907 34.7733 96.4805 36.7747 96.901H36.8136ZM37.6079 88.9892H101.51C103.659 88.9892 105.341 90.6557 105.341 92.7738C105.341 94.8919 103.659 96.5584 101.51 96.5584H98.3872H98.3794C97.7175 96.4727 97.2425 96.4338 96.783 96.4338H37.6079C37.4833 96.4338 37.3743 96.4494 37.2497 96.4727L36.9226 96.5117H36.837C35.0381 96.1379 33.7844 94.6038 33.7844 92.7738C33.7766 90.6479 35.4586 88.9892 37.6079 88.9892Z" fill="#FBFBFA"/>
</g>
<path d="M10.1362 58.4029C10.1362 58.4029 4.96284 84.1226 28.0618 81.7747C28.0618 81.7747 36.8312 62.02 10.1362 58.4029Z" fill="#FBFBFA" stroke="#2C3B96" stroke-width="1.2" stroke-linecap="round" stroke-linejoin="round"/>
<path d="M43.6378 59.1336C43.6378 59.1336 29.1822 59.5718 33.2989 71.5216C33.2989 71.5216 44.9949 73.7264 43.6378 59.1336Z" fill="#FBFBFA" stroke="#2C3B96" stroke-width="1.2" stroke-linecap="round" stroke-linejoin="round"/>
<defs>
<clipPath id="clip0_1909_29230">
<rect width="74.7574" height="29.5603" fill="white" transform="translate(32.2424 87.4707)"/>
</clipPath>
</defs>
</svg>
