<svg width="103" height="103" viewBox="0 0 103 103" fill="none" xmlns="http://www.w3.org/2000/svg">
<path d="M30.9885 41.0913C35.2607 41.0913 39.3195 41.9895 43.0069 43.5853C35.9236 50.8123 31.5525 60.6883 31.5525 71.5796C31.5525 82.4713 35.9361 92.3471 43.0075 99.5738C39.3199 101.17 35.2608 102.068 30.9883 102.068C14.1486 102.068 0.5 88.4068 0.5 71.5796C0.5 54.7529 14.1482 41.104 30.9885 41.0913Z" stroke="#2C3B96"/>
<path d="M43.5861 59.5614C50.8131 66.6443 60.6889 71.0153 71.5799 71.0153C82.4709 71.0153 92.3467 66.6444 99.5736 59.5615C101.17 63.2604 102.068 67.3198 102.068 71.5923C102.068 88.4321 88.4198 102.081 71.5799 102.081C54.74 102.081 41.0916 88.4321 41.0916 71.5923C41.0916 67.3078 41.9898 63.2592 43.5861 59.5614Z" stroke="#2C3B96"/>
<path d="M59.5496 2.99457C63.2485 1.39832 67.3079 0.5 71.5804 0.5C88.4203 0.5 102.069 14.1485 102.069 30.9883C102.069 47.8282 88.4203 61.4767 71.5804 61.4767C67.2959 61.4767 63.2473 60.5784 59.5496 58.9821C66.6325 51.7551 71.0035 41.8793 71.0035 30.9883C71.0035 20.0973 66.6325 10.2216 59.5496 2.99457Z" stroke="#2C3B96"/>
<path d="M61.4767 30.9887C61.4766 35.2608 60.5784 39.3195 58.9827 43.0069C51.7557 35.9236 41.8796 31.5525 30.9883 31.5525C20.0967 31.5525 10.2209 35.9361 2.99421 43.0075C1.3983 39.3199 0.5 35.2608 0.5 30.9883C0.5 14.1486 14.1611 0.5 30.9883 0.5C47.8152 0.5 61.464 14.1483 61.4767 30.9887Z" stroke="#2C3B96"/>
</svg>
