<svg width="134" height="126" viewBox="0 0 134 126" fill="none" xmlns="http://www.w3.org/2000/svg">
<path d="M41.7407 72.7257C41.7407 68.3799 42.6553 64.2514 44.2799 60.5011C51.6218 67.7011 61.6573 72.1447 72.7249 72.1447C83.7928 72.1447 93.828 67.6884 101.17 60.5005C102.794 64.251 103.709 68.3798 103.709 72.7259C103.709 89.8395 89.8257 103.71 72.7249 103.71C55.6244 103.71 41.7536 89.8398 41.7407 72.7257Z" stroke="#2C3B96"/>
<path d="M60.5006 59.9285C67.7003 52.5866 72.1436 42.5514 72.1436 31.4841C72.1436 20.4169 67.7003 10.3817 60.5007 3.03973C64.2626 1.41463 68.3917 0.499969 72.7378 0.499969C89.8516 0.499968 103.722 14.3704 103.722 31.4841C103.722 48.5978 89.8516 62.4683 72.7378 62.4683C68.3795 62.4683 64.2614 61.5536 60.5006 59.9285Z" stroke="#2C3B96"/>
<path d="M3.03976 43.7212C1.41466 39.9593 0.5 35.8302 0.499999 31.4841C0.499999 14.3704 14.3704 0.49995 31.4841 0.499949C48.5979 0.499948 62.4683 14.3704 62.4683 31.4841C62.4683 35.8424 61.5537 39.9605 59.9286 43.7213C52.5866 36.5216 42.5514 32.0783 31.4841 32.0783C20.4169 32.0783 10.3817 36.5216 3.03976 43.7212Z" stroke="#2C3B96"/>
<path d="M31.4845 41.7417C35.8302 41.7417 39.9587 42.6563 43.7089 44.2808C36.5089 51.6228 32.0653 61.6583 32.0653 72.7258C32.0653 83.7937 36.5216 93.829 43.7095 101.171C39.959 102.795 35.8302 103.71 31.4841 103.71C14.3705 103.71 0.499999 89.8267 0.499999 72.7258C0.499998 55.6253 14.3703 41.7545 31.4845 41.7417Z" stroke="#2C3B96"/>
<g clip-path="url(#clip0_1909_27513)">
<path d="M129.652 93.7968C127.517 90.1812 124.453 86.3818 120.909 81.9899C119.663 80.4477 118.315 78.7624 116.885 76.9546L116.507 76.4644L116.129 76.9444C114.955 78.4356 113.841 79.8144 112.616 81.3362L112.197 81.8674C108.622 86.3103 105.528 90.1506 103.383 93.7764C101.044 97.7291 99.9612 101.273 99.9612 104.899C99.9612 109.373 101.687 113.581 104.813 116.737C107.938 119.893 112.085 121.629 116.507 121.629C120.93 121.629 125.076 119.882 128.202 116.716C131.327 113.54 133.053 109.322 133.053 104.848C133.053 101.232 131.971 97.7189 129.652 93.7968ZM116.507 120.638C107.918 120.638 100.931 113.581 100.931 104.899C100.931 101.386 101.953 98.0968 104.251 94.236C106.345 90.7021 109.388 86.9231 112.922 82.5415L112.953 82.5006C114.015 81.1728 115.118 79.8042 116.272 78.3539L116.507 78.0577L116.752 78.3539C117.774 79.6408 118.826 80.9583 120.164 82.6129C123.687 86.9844 126.711 90.7328 128.794 94.236C131.072 98.0661 132.083 101.345 132.083 104.848C132.083 113.55 125.097 120.638 116.507 120.638Z" fill="#2C3B96"/>
<path d="M132.083 104.848C132.083 113.55 125.097 120.638 116.507 120.638C107.918 120.638 100.932 113.581 100.932 104.899C100.932 101.386 101.953 98.0968 104.251 94.236C106.345 90.7021 109.388 86.9231 112.922 82.5415L112.953 82.5006C114.015 81.1728 115.118 79.8042 116.272 78.3539L116.507 78.0577L116.752 78.3539C117.774 79.6408 118.826 80.9583 120.164 82.6129C123.687 86.9844 126.711 90.7328 128.794 94.236C131.072 98.0661 132.083 101.345 132.083 104.848Z" fill="#FBFBFA"/>
</g>
<path d="M91.9596 109.781C93.3116 111.471 94.4395 112.882 95.2127 114.191C96.048 115.607 96.3982 116.78 96.3982 118.017C96.3982 121.096 93.9462 123.587 90.9546 123.587C87.9614 123.587 85.511 121.106 85.511 118.037C85.511 116.797 85.8646 115.619 86.7082 114.192L86.7087 114.191C87.4856 112.87 88.6213 111.447 89.9769 109.754L89.9824 109.747L89.9877 109.74L89.9947 109.731C90.1375 109.551 90.2827 109.368 90.4303 109.183C90.6024 108.967 90.7777 108.747 90.9561 108.522C91.2567 108.902 91.5777 109.306 91.9596 109.781ZM97.7685 118.017C97.7685 116.518 97.3201 115.08 96.402 113.516C95.567 112.091 94.3751 110.603 93.0332 108.927L93.0247 108.917L93.0245 108.917C92.5506 108.326 92.0379 107.68 91.494 106.987L91.3517 106.801L90.9588 106.288L90.5606 106.797L90.4165 106.982C90.4165 106.982 90.4165 106.982 90.4164 106.982C90.0096 107.502 89.6222 107.987 89.202 108.512C89.1614 108.563 89.1204 108.614 89.0791 108.666L89.0791 108.666L89.0759 108.67L88.9177 108.872L88.8765 108.924C87.5372 110.601 86.3469 112.091 85.5152 113.507C84.5888 115.085 84.1407 116.534 84.1407 118.037C84.1407 119.886 84.8499 121.63 86.1355 122.938C87.4211 124.246 89.1315 124.968 90.9546 124.968C92.7786 124.968 94.4891 124.241 95.7743 122.929L95.7749 122.929C97.0594 121.614 97.7685 119.866 97.7685 118.017Z" fill="white" stroke="#2C3B96"/>
<path d="M96.8982 118.017C96.8982 121.363 94.2323 124.088 90.9546 124.088C87.6768 124.088 85.011 121.375 85.011 118.037C85.011 116.686 85.4007 115.422 86.2777 113.938C87.0766 112.579 88.2381 111.126 89.5866 109.442L89.5983 109.426C90.0036 108.916 90.4245 108.39 90.865 107.832L90.9546 107.718L91.0481 107.832C91.4379 108.327 91.8393 108.833 92.3499 109.469C93.6945 111.15 94.8481 112.591 95.6432 113.938C96.5124 115.41 96.8982 116.671 96.8982 118.017Z" fill="#FBFBFA"/>
<defs>
<clipPath id="clip0_1909_27513">
<rect width="33.0921" height="45.1646" fill="white" transform="translate(99.9612 76.4644)"/>
</clipPath>
</defs>
</svg>
