<svg width="126" height="117" viewBox="0 0 126 117" fill="none" xmlns="http://www.w3.org/2000/svg">
<path d="M61.1641 30.8259C61.164 35.0739 60.2712 39.1098 58.6849 42.7766C51.4956 35.7317 41.6719 31.3842 30.8384 31.3842C20.0045 31.3842 10.181 35.7441 2.99208 42.7772C1.40563 39.1102 0.512698 35.074 0.512698 30.8257C0.512699 14.0758 14.101 0.499998 30.8384 0.499999C47.5754 0.499999 61.1514 14.0754 61.1641 30.8259Z" stroke="#2C3B96"/>
<path d="M42.7887 43.3582C35.744 50.5475 31.3969 60.371 31.3969 71.2042C31.3969 82.0373 35.744 91.8608 42.7886 99.0501C39.1104 100.637 35.0739 101.53 30.8255 101.53C14.0755 101.53 0.499853 87.9542 0.499854 71.2042C0.499854 54.4541 14.0755 40.8785 30.8255 40.8785C35.0858 40.8785 39.1116 41.7714 42.7887 43.3582Z" stroke="#2C3B96"/>
<path d="M99.0625 59.2416C100.649 62.9199 101.542 66.9564 101.542 71.2047C101.542 87.9548 87.9666 101.53 71.2166 101.53C54.4665 101.53 40.8909 87.9548 40.8909 71.2047C40.8909 66.9445 41.7838 62.9187 43.3706 59.2416C50.5599 66.2862 60.3834 70.6334 71.2166 70.6334C82.0497 70.6334 91.8732 66.2862 99.0625 59.2416Z" stroke="#2C3B96"/>
<path d="M71.2162 61.1514C66.9682 61.1513 62.9324 60.2585 59.2656 58.6722C66.3106 51.4829 70.658 41.6592 70.658 30.8257C70.658 19.9918 66.2982 10.1683 59.265 2.97938C62.9321 1.39293 66.9682 0.499998 71.2166 0.499999C87.9665 0.499999 101.542 14.0883 101.542 30.8257C101.542 47.5628 87.9667 61.1388 71.2162 61.1514Z" stroke="#2C3B96"/>
<g clip-path="url(#clip0_1909_27569)">
<path d="M125.042 101C125.042 97.785 123.139 94.89 120.19 93.63L120.022 93.56L120.037 93.37C120.086 92.835 120.136 92.285 120.136 91.75C120.136 85.27 114.912 80 108.489 80C104.941 80 101.635 81.605 99.415 84.405L99.311 84.535L99.1524 84.485C98.0621 84.155 97.0659 83.995 96.0995 83.995C90.9205 83.995 86.5742 87.9 85.9894 93.075L85.9695 93.24L85.811 93.285C82.3616 94.3 80.0422 97.395 80.0422 101C80.0422 105.41 83.6006 109 87.9718 109H117.113C121.484 109 125.042 105.41 125.042 101ZM117.113 108.05H87.9718C84.1458 108.05 81.0334 104.91 81.0334 101.05C81.0334 97.905 83.105 95.135 86.0736 94.31C86.5593 94.185 86.9013 93.78 86.9855 93.215C87.496 88.54 91.4161 85.005 96.0995 85.005C96.9817 85.005 97.953 85.15 98.8451 85.415C99.2961 85.565 99.8958 85.385 100.158 85.01C102.275 82.46 105.303 81.005 108.489 81.005C114.362 81.005 119.145 85.825 119.145 91.755C119.145 92.215 119.095 92.725 119.046 93.22C118.961 93.765 119.274 94.315 119.799 94.58C122.376 95.67 124.051 98.215 124.051 101.055C124.051 104.915 120.939 108.055 117.113 108.055V108.05Z" fill="#2C3B96"/>
<path d="M119.799 94.58C119.274 94.31 118.961 93.76 119.046 93.22C119.095 92.725 119.145 92.21 119.145 91.75C119.145 85.825 114.367 81 108.489 81C105.308 81 102.275 82.455 100.158 85.005C99.8958 85.38 99.2961 85.56 98.8451 85.41C97.953 85.145 96.9817 85 96.0995 85C91.4112 85 87.491 88.535 86.9855 93.215C86.8963 93.78 86.5593 94.185 86.0736 94.31C83.105 95.135 81.0334 97.91 81.0334 101.05C81.0334 104.91 84.1458 108.05 87.9718 108.05H117.113C120.939 108.05 124.051 104.91 124.051 101.05C124.051 98.215 122.376 95.67 119.799 94.58Z" fill="#FBFBFA"/>
</g>
<path d="M48.6687 104.248L48.6696 104.248L48.7301 104.222L48.7246 104.152C48.7246 104.152 48.7246 104.151 48.7245 104.151C48.6872 103.746 48.6493 103.325 48.6493 102.914C48.6493 97.9439 52.6395 93.9 57.5488 93.9C60.2608 93.9 62.787 95.1318 64.4833 97.2795C64.4834 97.2796 64.4834 97.2797 64.4835 97.2797L64.519 97.3243L64.5733 97.3071L64.5744 97.3067C65.406 97.054 66.1685 96.9307 66.9101 96.9307C70.8746 96.9307 74.2005 99.9319 74.6482 103.907C74.6482 103.908 74.6482 103.908 74.6482 103.908L74.6552 103.966L74.711 103.982L74.712 103.982C77.3609 104.765 79.1422 107.152 79.1422 109.931C79.1422 113.331 76.4101 116.1 73.051 116.1H51.0334C47.6743 116.1 44.9422 113.331 44.9422 109.931C44.9422 107.452 46.4036 105.22 48.6687 104.248ZM50.9334 115.182V115.179H51.0334H73.051C75.8854 115.179 78.1933 112.843 78.1933 109.969C78.1933 107.627 76.657 105.566 74.4592 104.952C74.0481 104.846 73.7659 104.502 73.6973 104.04L73.6972 104.04L73.6968 104.036C73.3165 100.539 70.3968 97.8969 66.9101 97.8969C66.2542 97.8969 65.5305 98.0052 64.8657 98.2033C64.6727 98.2673 64.4533 98.2596 64.2568 98.1993C64.0614 98.1393 63.8787 98.0241 63.7638 97.8614C62.1831 95.9507 59.9241 94.8624 57.5488 94.8624C53.168 94.8624 49.5982 98.473 49.5982 102.918C49.5982 103.26 49.6349 103.641 49.6723 104.016C49.7419 104.477 49.4789 104.932 49.0491 105.15L49.0492 105.15L49.043 105.153C47.1335 105.964 45.8911 107.858 45.8911 109.973C45.8911 112.813 48.145 115.128 50.9334 115.182Z" fill="#2C3B96" stroke="#2C3B96" stroke-width="0.2"/>
<path d="M49.2054 105.041C49.5962 104.841 49.8284 104.434 49.7657 104.035C49.7289 103.669 49.692 103.288 49.692 102.948C49.692 98.5675 53.2459 95 57.6183 95C59.9851 95 62.2413 96.0758 63.8155 97.9612C64.0109 98.2384 64.457 98.3715 64.7925 98.2606C65.4561 98.0647 66.1786 97.9575 66.8349 97.9575C70.3224 97.9575 73.2385 100.571 73.6146 104.031C73.6809 104.449 73.9316 104.749 74.2929 104.841C76.5012 105.451 78.0422 107.503 78.0422 109.824C78.0422 112.678 75.727 115 72.8809 115H51.2035C48.3574 115 46.0422 112.678 46.0422 109.824C46.0422 107.728 47.2883 105.847 49.2054 105.041Z" fill="#FBFBFA"/>
<defs>
<clipPath id="clip0_1909_27569">
<rect width="45" height="29" fill="white" transform="translate(80.0422 80)"/>
</clipPath>
</defs>
</svg>
